<svg width="199" height="32" viewBox="0 0 199 32" fill="none" xmlns="http://www.w3.org/2000/svg">
<g clip-path="url(#clip0_2011_6)">
<path d="M49.14 7.255C49.14 7.465 49.2 7.63 49.32 7.75C49.455 7.87 49.605 7.93 49.77 7.93H56.52C57.21 7.93 57.78 8.065 58.23 8.335C58.695 8.59 59.0625 8.935 59.3325 9.37C59.6025 9.805 59.79 10.3075 59.895 10.8775C60.015 11.4325 60.075 12.0025 60.075 12.5875V14.5675C60.075 15.1525 60.0075 15.715 59.8725 16.255C59.7525 16.795 59.55 17.2675 59.265 17.6725C58.98 18.0775 58.605 18.4 58.14 18.64C57.69 18.88 57.135 19 56.475 19H46.3275C46.0875 19 45.915 18.925 45.81 18.775C45.72 18.625 45.675 18.445 45.675 18.235V16.435C45.675 16.225 45.72 16.045 45.81 15.895C45.915 15.745 46.0875 15.67 46.3275 15.67H55.935C56.295 15.67 56.52 15.5425 56.61 15.2875C56.7 15.0175 56.745 14.7325 56.745 14.4325V12.4975C56.745 12.2125 56.7 11.935 56.61 11.665C56.52 11.395 56.3025 11.26 55.9575 11.26H49.2075C47.9625 11.26 47.0625 10.9075 46.5075 10.2025C45.9675 9.4975 45.6975 8.515 45.6975 7.255V4.3525C45.6975 3.9025 45.75 3.445 45.855 2.98C45.96 2.515 46.14 2.1025 46.395 1.7425C46.665 1.3675 47.025 1.06 47.475 0.82C47.94 0.58 48.5325 0.46 49.2525 0.46H58.95C59.175 0.46 59.3325 0.535 59.4225 0.685C59.5275 0.835 59.58 1.015 59.58 1.225V3.025C59.58 3.235 59.5275 3.415 59.4225 3.565C59.3325 3.715 59.175 3.79 58.95 3.79H49.7925C49.6425 3.79 49.4925 3.8425 49.3425 3.9475C49.2075 4.0525 49.14 4.1875 49.14 4.3525V7.255ZM79.8212 18.01C79.8962 18.115 79.9262 18.2875 79.9112 18.5275C79.8962 18.8425 79.7237 19 79.3937 19H76.9637C76.7387 19 76.5812 18.955 76.4912 18.865C76.4012 18.79 76.3187 18.685 76.2437 18.55L72.7337 12.4075C72.4937 11.9575 72.2462 11.665 71.9912 11.53C71.7512 11.38 71.3462 11.305 70.7762 11.305H68.5037V18.2125C68.5037 18.5575 68.4212 18.775 68.2562 18.865C68.0912 18.955 67.9637 19 67.8737 19H65.8037C65.7137 19 65.5787 18.955 65.3987 18.865C65.2337 18.775 65.1512 18.5575 65.1512 18.2125V1.2475C65.1512 0.8875 65.2337 0.67 65.3987 0.595C65.5787 0.505 65.7137 0.46 65.8037 0.46H67.8737C67.9637 0.46 68.0912 0.505 68.2562 0.595C68.4212 0.67 68.5037 0.8875 68.5037 1.2475V7.975H70.5737C71.0987 7.975 71.4887 7.915 71.7437 7.795C72.0137 7.66 72.2687 7.3675 72.5087 6.9175L75.9062 0.91C75.9362 0.85 75.9662 0.7975 75.9962 0.7525C76.0412 0.6925 76.0937 0.64 76.1537 0.595C76.2437 0.505 76.4087 0.46 76.6487 0.46H78.8762C79.1462 0.46 79.3187 0.565 79.3937 0.775C79.4687 0.984999 79.4462 1.1875 79.3262 1.3825L75.6137 7.9075C75.3887 8.2825 75.1862 8.62 75.0062 8.92C74.8562 9.16 74.7137 9.355 74.5787 9.505C74.7887 9.715 75.0062 9.97 75.2312 10.27C75.4712 10.555 75.7037 10.8925 75.9287 11.2825L79.8212 18.01ZM95.6531 0.46C96.5081 0.46 97.2131 0.6025 97.7681 0.8875C98.3231 1.1575 98.7581 1.54 99.0731 2.035C99.4031 2.515 99.6281 3.085 99.7481 3.745C99.8831 4.39 99.9506 5.0875 99.9506 5.8375C99.9506 6.5875 99.8831 7.3 99.7481 7.975C99.6281 8.635 99.4031 9.2125 99.0731 9.7075C98.7581 10.2025 98.3231 10.6 97.7681 10.9C97.2131 11.185 96.5081 11.3275 95.6531 11.3275H87.9581V18.235C87.9581 18.445 87.9056 18.6325 87.8006 18.7975C87.7106 18.9475 87.5531 19.0225 87.3281 19.0225H85.2581C85.0331 19.0225 84.8681 18.9475 84.7631 18.7975C84.6731 18.6325 84.6281 18.445 84.6281 18.235V8.785C84.6281 8.575 84.6731 8.395 84.7631 8.245C84.8681 8.095 85.0331 8.02 85.2581 8.02H95.0681C95.4131 8.02 95.6831 7.9675 95.8781 7.8625C96.0881 7.7425 96.2456 7.585 96.3506 7.39C96.4556 7.195 96.5231 6.97 96.5531 6.715C96.5981 6.46 96.6206 6.19 96.6206 5.905C96.6206 5.62 96.5981 5.35 96.5531 5.095C96.5231 4.84 96.4556 4.615 96.3506 4.42C96.2456 4.225 96.0881 4.075 95.8781 3.97C95.6831 3.85 95.4131 3.79 95.0681 3.79H85.2581C85.0331 3.79 84.8681 3.715 84.7631 3.565C84.6731 3.415 84.6281 3.235 84.6281 3.025C84.6281 2.86 84.6131 2.635 84.5831 2.35C84.5681 2.065 84.5681 1.78 84.5831 1.495C84.5981 1.21 84.6506 0.969999 84.7406 0.775C84.8456 0.565 85.0181 0.46 85.2581 0.46H95.6531Z" fill="black"/>
<path d="M48.286 29.387C47.902 29.387 47.539 29.324 47.197 29.198C46.861 29.072 46.588 28.892 46.378 28.658C46.168 28.424 46.063 28.148 46.063 27.83C46.063 27.728 46.081 27.62 46.117 27.506C46.165 27.35 46.219 27.272 46.279 27.272C46.369 27.272 46.414 27.323 46.414 27.425C46.414 27.467 46.402 27.524 46.378 27.596C46.354 27.668 46.342 27.737 46.342 27.803C46.342 28.067 46.432 28.298 46.612 28.496C46.792 28.688 47.023 28.835 47.305 28.937C47.593 29.039 47.893 29.09 48.205 29.09C48.883 29.09 49.459 28.928 49.933 28.604C50.179 28.436 50.383 28.235 50.545 28.001C50.707 27.761 50.788 27.506 50.788 27.236C50.788 26.99 50.725 26.786 50.599 26.624C50.479 26.462 50.311 26.324 50.095 26.21C49.879 26.09 49.63 25.982 49.348 25.886C48.544 25.604 48.142 25.262 48.142 24.86C48.142 24.644 48.223 24.437 48.385 24.239C48.547 24.041 48.745 23.867 48.979 23.717C49.213 23.561 49.438 23.444 49.654 23.366C49.972 23.246 50.266 23.165 50.536 23.123C50.812 23.075 51.067 23.051 51.301 23.051C51.619 23.051 51.844 23.126 51.976 23.276C52.108 23.42 52.174 23.6 52.174 23.816C52.174 23.984 52.132 24.146 52.048 24.302C51.97 24.458 51.862 24.593 51.724 24.707C51.568 24.839 51.442 24.905 51.346 24.905C51.244 24.905 51.193 24.857 51.193 24.761C51.193 24.707 51.22 24.668 51.274 24.644C51.676 24.44 51.877 24.161 51.877 23.807C51.877 23.651 51.832 23.537 51.742 23.465C51.658 23.387 51.511 23.348 51.301 23.348C51.109 23.348 50.893 23.369 50.653 23.411C50.419 23.453 50.179 23.516 49.933 23.6C49.717 23.678 49.498 23.783 49.276 23.915C49.054 24.047 48.868 24.191 48.718 24.347C48.574 24.503 48.502 24.659 48.502 24.815C48.502 25.145 48.82 25.409 49.456 25.607C50.554 25.955 51.103 26.489 51.103 27.209C51.103 27.425 51.052 27.638 50.95 27.848C50.854 28.058 50.725 28.25 50.563 28.424C50.407 28.598 50.239 28.748 50.059 28.874C49.801 29.054 49.519 29.183 49.213 29.261C48.913 29.345 48.604 29.387 48.286 29.387ZM55.399 29.621C55.231 29.621 55.147 29.561 55.147 29.441C55.147 29.381 55.219 29.042 55.363 28.424C55.429 28.16 55.507 27.833 55.597 27.443C55.687 27.047 55.792 26.585 55.912 26.057C55.96 25.817 55.996 25.571 56.02 25.319C56.05 25.067 56.065 24.803 56.065 24.527C56.065 24.281 56.056 24.083 56.038 23.933C56.026 23.783 55.99 23.669 55.93 23.591C55.876 23.519 55.849 23.465 55.849 23.429C55.849 23.333 55.897 23.285 55.993 23.285C56.095 23.285 56.188 23.351 56.272 23.483C56.308 23.537 56.338 23.645 56.362 23.807C56.386 23.969 56.398 24.185 56.398 24.455C56.398 24.743 56.383 25.025 56.353 25.301C56.329 25.571 56.287 25.838 56.227 26.102C56.161 26.432 56.071 26.846 55.957 27.344C55.843 27.836 55.702 28.412 55.534 29.072C55.672 28.94 55.825 28.778 55.993 28.586C56.161 28.388 56.332 28.184 56.506 27.974C56.686 27.764 56.851 27.56 57.001 27.362C57.157 27.164 57.289 26.993 57.397 26.849C57.511 26.705 57.589 26.603 57.631 26.543C58.081 25.907 58.468 25.391 58.792 24.995C59.116 24.593 59.383 24.278 59.593 24.05C59.803 23.816 59.956 23.636 60.052 23.51C60.088 23.462 60.127 23.414 60.169 23.366C60.211 23.318 60.265 23.294 60.331 23.294C60.445 23.294 60.502 23.354 60.502 23.474C60.502 23.522 60.493 23.564 60.475 23.6C60.457 23.636 60.436 23.687 60.412 23.753C60.34 23.939 60.25 24.191 60.142 24.509C59.722 25.793 59.512 27.251 59.512 28.883C59.632 28.787 59.788 28.631 59.98 28.415C60.178 28.193 60.409 27.914 60.673 27.578C60.841 27.356 61.054 27.086 61.312 26.768C61.57 26.444 61.873 26.069 62.221 25.643C62.599 25.199 62.932 24.821 63.22 24.509C63.508 24.191 63.751 23.936 63.949 23.744C64.861 22.844 65.533 22.394 65.965 22.394C66.103 22.394 66.172 22.448 66.172 22.556C66.172 22.604 66.157 22.64 66.127 22.664C66.103 22.682 66.076 22.691 66.046 22.691C66.022 22.691 65.998 22.688 65.974 22.682C65.956 22.676 65.935 22.673 65.911 22.673C65.593 22.673 64.978 23.129 64.066 24.041C63.772 24.335 63.481 24.638 63.193 24.95C62.911 25.256 62.656 25.553 62.428 25.841C62.146 26.201 61.861 26.567 61.573 26.939C61.291 27.305 60.982 27.701 60.646 28.127C60.412 28.427 60.226 28.655 60.088 28.811C59.95 28.967 59.851 29.075 59.791 29.135C59.737 29.189 59.689 29.231 59.647 29.261C59.611 29.297 59.578 29.315 59.548 29.315C59.488 29.315 59.419 29.285 59.341 29.225C59.263 29.171 59.224 29.117 59.224 29.063C59.224 27.173 59.47 25.517 59.962 24.095C59.74 24.317 59.479 24.611 59.179 24.977C58.885 25.337 58.546 25.769 58.162 26.273C57.856 26.675 57.589 27.023 57.361 27.317C57.139 27.611 56.959 27.851 56.821 28.037C56.527 28.415 56.275 28.727 56.065 28.973C55.861 29.213 55.705 29.387 55.597 29.495C55.561 29.537 55.528 29.567 55.498 29.585C55.474 29.609 55.441 29.621 55.399 29.621ZM65.4781 29.225C65.3761 29.225 65.3251 29.174 65.3251 29.072C65.3251 28.976 65.3821 28.928 65.4961 28.928C65.5981 28.928 65.7241 28.922 65.8741 28.91C66.0241 28.892 66.1561 28.88 66.2701 28.874C66.2881 28.76 66.3481 28.592 66.4501 28.37C66.5521 28.148 66.6871 27.896 66.8551 27.614C67.0231 27.332 67.2121 27.041 67.4221 26.741L68.9251 24.599C68.9911 24.497 69.0811 24.356 69.1951 24.176C69.3151 23.99 69.4561 23.765 69.6181 23.501C69.4381 23.513 69.2731 23.528 69.1231 23.546C68.9791 23.564 68.8501 23.582 68.7361 23.6C68.5681 23.624 68.4571 23.642 68.4031 23.654C68.3491 23.666 68.3071 23.672 68.2771 23.672C68.1751 23.672 68.1241 23.615 68.1241 23.501C68.1241 23.435 68.1661 23.393 68.2501 23.375C68.6041 23.309 68.9491 23.258 69.2851 23.222C69.6271 23.186 69.9631 23.168 70.2931 23.168C70.6171 23.168 70.8811 23.195 71.0851 23.249C71.1811 23.279 71.2441 23.309 71.2741 23.339C71.3101 23.369 71.3281 23.408 71.3281 23.456C71.3281 23.552 71.2831 23.6 71.1931 23.6C71.1631 23.6 71.1211 23.588 71.0671 23.564C71.0131 23.54 70.9291 23.519 70.8151 23.501C70.7071 23.477 70.5421 23.465 70.3201 23.465C70.2361 23.465 70.1611 23.465 70.0951 23.465C70.0351 23.465 69.9841 23.468 69.9421 23.474C69.9361 23.6 69.8221 23.822 69.6001 24.14L69.1501 24.779L67.9981 26.462C67.7821 26.774 67.5841 27.074 67.4041 27.362C67.2241 27.65 67.0561 27.92 66.9001 28.172C66.8101 28.322 66.7111 28.541 66.6031 28.829C66.8311 28.805 67.0201 28.79 67.1701 28.784C67.3201 28.772 67.4281 28.766 67.4941 28.766C67.6261 28.766 67.7431 28.772 67.8451 28.784C67.9531 28.79 68.0461 28.799 68.1241 28.811C68.2141 28.829 68.2591 28.874 68.2591 28.946C68.2591 29.042 68.2051 29.09 68.0971 29.09C68.0251 29.09 67.9321 29.084 67.8181 29.072C67.7101 29.066 67.6141 29.063 67.5301 29.063C67.2601 29.063 66.9301 29.09 66.5401 29.144C66.5101 29.192 66.4681 29.216 66.4141 29.216C66.3661 29.216 66.3301 29.195 66.3061 29.153C66.1261 29.177 65.9671 29.195 65.8291 29.207C65.6911 29.219 65.5741 29.225 65.4781 29.225ZM74.45 29.387C74.066 29.387 73.703 29.324 73.361 29.198C73.025 29.072 72.752 28.892 72.542 28.658C72.332 28.424 72.227 28.148 72.227 27.83C72.227 27.728 72.245 27.62 72.281 27.506C72.329 27.35 72.383 27.272 72.443 27.272C72.533 27.272 72.578 27.323 72.578 27.425C72.578 27.467 72.566 27.524 72.542 27.596C72.518 27.668 72.506 27.737 72.506 27.803C72.506 28.067 72.596 28.298 72.776 28.496C72.956 28.688 73.187 28.835 73.469 28.937C73.757 29.039 74.057 29.09 74.369 29.09C75.047 29.09 75.623 28.928 76.097 28.604C76.343 28.436 76.547 28.235 76.709 28.001C76.871 27.761 76.952 27.506 76.952 27.236C76.952 26.99 76.889 26.786 76.763 26.624C76.643 26.462 76.475 26.324 76.259 26.21C76.043 26.09 75.794 25.982 75.512 25.886C74.708 25.604 74.306 25.262 74.306 24.86C74.306 24.644 74.387 24.437 74.549 24.239C74.711 24.041 74.909 23.867 75.143 23.717C75.377 23.561 75.602 23.444 75.818 23.366C76.136 23.246 76.43 23.165 76.7 23.123C76.976 23.075 77.231 23.051 77.465 23.051C77.783 23.051 78.008 23.126 78.14 23.276C78.272 23.42 78.338 23.6 78.338 23.816C78.338 23.984 78.296 24.146 78.212 24.302C78.134 24.458 78.026 24.593 77.888 24.707C77.732 24.839 77.606 24.905 77.51 24.905C77.408 24.905 77.357 24.857 77.357 24.761C77.357 24.707 77.384 24.668 77.438 24.644C77.84 24.44 78.041 24.161 78.041 23.807C78.041 23.651 77.996 23.537 77.906 23.465C77.822 23.387 77.675 23.348 77.465 23.348C77.273 23.348 77.057 23.369 76.817 23.411C76.583 23.453 76.343 23.516 76.097 23.6C75.881 23.678 75.662 23.783 75.44 23.915C75.218 24.047 75.032 24.191 74.882 24.347C74.738 24.503 74.666 24.659 74.666 24.815C74.666 25.145 74.984 25.409 75.62 25.607C76.718 25.955 77.267 26.489 77.267 27.209C77.267 27.425 77.216 27.638 77.114 27.848C77.018 28.058 76.889 28.25 76.727 28.424C76.571 28.598 76.403 28.748 76.223 28.874C75.965 29.054 75.683 29.183 75.377 29.261C75.077 29.345 74.768 29.387 74.45 29.387ZM82.5619 29.387C82.1779 29.387 81.8149 29.324 81.4729 29.198C81.1369 29.072 80.8639 28.892 80.6539 28.658C80.4439 28.424 80.3389 28.148 80.3389 27.83C80.3389 27.728 80.3569 27.62 80.3929 27.506C80.4409 27.35 80.4949 27.272 80.5549 27.272C80.6449 27.272 80.6899 27.323 80.6899 27.425C80.6899 27.467 80.6779 27.524 80.6539 27.596C80.6299 27.668 80.6179 27.737 80.6179 27.803C80.6179 28.067 80.7079 28.298 80.8879 28.496C81.0679 28.688 81.2989 28.835 81.5809 28.937C81.8689 29.039 82.1689 29.09 82.4809 29.09C83.1589 29.09 83.7349 28.928 84.2089 28.604C84.4549 28.436 84.6589 28.235 84.8209 28.001C84.9829 27.761 85.0639 27.506 85.0639 27.236C85.0639 26.99 85.0009 26.786 84.8749 26.624C84.7549 26.462 84.5869 26.324 84.3709 26.21C84.1549 26.09 83.9059 25.982 83.6239 25.886C82.8199 25.604 82.4179 25.262 82.4179 24.86C82.4179 24.644 82.4989 24.437 82.6609 24.239C82.8229 24.041 83.0209 23.867 83.2549 23.717C83.4889 23.561 83.7139 23.444 83.9299 23.366C84.2479 23.246 84.5419 23.165 84.8119 23.123C85.0879 23.075 85.3429 23.051 85.5769 23.051C85.8949 23.051 86.1199 23.126 86.2519 23.276C86.3839 23.42 86.4499 23.6 86.4499 23.816C86.4499 23.984 86.4079 24.146 86.3239 24.302C86.2459 24.458 86.1379 24.593 85.9999 24.707C85.8439 24.839 85.7179 24.905 85.6219 24.905C85.5199 24.905 85.4689 24.857 85.4689 24.761C85.4689 24.707 85.4959 24.668 85.5499 24.644C85.9519 24.44 86.1529 24.161 86.1529 23.807C86.1529 23.651 86.1079 23.537 86.0179 23.465C85.9339 23.387 85.7869 23.348 85.5769 23.348C85.3849 23.348 85.1689 23.369 84.9289 23.411C84.6949 23.453 84.4549 23.516 84.2089 23.6C83.9929 23.678 83.7739 23.783 83.5519 23.915C83.3299 24.047 83.1439 24.191 82.9939 24.347C82.8499 24.503 82.7779 24.659 82.7779 24.815C82.7779 25.145 83.0959 25.409 83.7319 25.607C84.8299 25.955 85.3789 26.489 85.3789 27.209C85.3789 27.425 85.3279 27.638 85.2259 27.848C85.1299 28.058 85.0009 28.25 84.8389 28.424C84.6829 28.598 84.5149 28.748 84.3349 28.874C84.0769 29.054 83.7949 29.183 83.4889 29.261C83.1889 29.345 82.8799 29.387 82.5619 29.387ZM93.9785 29.387C93.9365 29.387 93.8915 29.366 93.8435 29.324C93.7955 29.288 93.7715 29.249 93.7715 29.207C93.7715 29.123 93.8045 28.988 93.8705 28.802C93.9425 28.616 94.0355 28.403 94.1495 28.163C94.2635 27.923 94.3865 27.686 94.5185 27.452L95.5175 25.688C96.2855 24.32 96.6935 23.486 96.7415 23.186C96.7475 23.09 96.7895 23.042 96.8675 23.042C96.9335 23.042 96.9785 23.069 97.0025 23.123C97.0265 23.171 97.0385 23.222 97.0385 23.276C97.0385 23.396 96.9965 23.567 96.9125 23.789C96.8345 24.011 96.7055 24.281 96.5255 24.599L95.7875 25.886C95.4815 26.42 95.2385 26.843 95.0585 27.155C94.8845 27.461 94.7465 27.707 94.6445 27.893C94.4945 28.181 94.3625 28.454 94.2485 28.712C94.1345 28.97 94.0715 29.162 94.0595 29.288C94.0595 29.354 94.0325 29.387 93.9785 29.387ZM98.1635 29.153C98.0615 29.153 98.0105 29.12 98.0105 29.054C98.0105 29.024 98.0405 28.97 98.1005 28.892C98.1665 28.814 98.2295 28.727 98.2895 28.631C98.4275 28.409 98.5565 28.157 98.6765 27.875C98.8025 27.593 98.8655 27.332 98.8655 27.092C98.8655 26.864 98.7995 26.681 98.6675 26.543C98.5415 26.399 98.3705 26.294 98.1545 26.228C97.9445 26.156 97.7105 26.12 97.4525 26.12C97.2065 26.12 96.8675 26.189 96.4355 26.327C96.0035 26.465 95.7545 26.534 95.6885 26.534C95.5925 26.534 95.5445 26.483 95.5445 26.381C95.5445 26.369 95.5595 26.336 95.5895 26.282C95.6195 26.222 95.6555 26.162 95.6975 26.102C95.7395 26.042 95.7725 26.009 95.7965 26.003L96.0125 25.967L96.8045 25.652C97.1405 25.514 97.4765 25.373 97.8125 25.229C98.1545 25.079 98.4905 24.926 98.8205 24.77C99.2945 24.548 99.7355 24.323 100.144 24.095C100.558 23.861 100.93 23.636 101.26 23.42C101.32 23.378 101.362 23.354 101.386 23.348C101.416 23.336 101.443 23.33 101.467 23.33C101.563 23.33 101.611 23.375 101.611 23.465C101.611 23.519 101.566 23.585 101.476 23.663C101.086 23.987 100.249 24.449 98.9645 25.049C98.7425 25.133 98.4455 25.25 98.0735 25.4C97.7075 25.55 97.3025 25.715 96.8585 25.895C97.0025 25.859 97.1465 25.841 97.2905 25.841C97.6265 25.841 97.9415 25.883 98.2355 25.967C98.5295 26.045 98.7665 26.174 98.9465 26.354C99.1325 26.528 99.2255 26.762 99.2255 27.056C99.2255 27.29 99.1715 27.542 99.0635 27.812C98.9615 28.082 98.8235 28.355 98.6495 28.631L98.4065 29.009C98.3465 29.105 98.2655 29.153 98.1635 29.153ZM102.737 29.468C102.689 29.468 102.641 29.447 102.593 29.405C102.551 29.363 102.53 29.321 102.53 29.279C102.53 29.237 102.539 29.189 102.557 29.135C102.575 29.087 102.596 29.03 102.62 28.964C102.98 27.866 103.457 26.831 104.051 25.859C104.795 24.647 105.377 23.858 105.797 23.492C105.911 23.396 105.986 23.336 106.022 23.312C106.064 23.282 106.1 23.267 106.13 23.267C106.274 23.267 106.346 23.33 106.346 23.456C106.346 23.528 106.343 23.651 106.337 23.825C106.331 23.999 106.328 24.209 106.328 24.455C106.328 24.971 106.379 25.595 106.481 26.327C106.583 27.053 106.739 27.827 106.949 28.649C107.357 28.091 107.714 27.584 108.02 27.128C108.326 26.666 108.593 26.228 108.821 25.814C108.989 25.514 109.16 25.202 109.334 24.878C109.514 24.548 109.679 24.233 109.829 23.933C109.985 23.633 110.108 23.366 110.198 23.132C110.294 22.892 110.342 22.712 110.342 22.592C110.342 22.508 110.381 22.466 110.459 22.466C110.579 22.466 110.639 22.523 110.639 22.637C110.639 22.811 110.588 23.024 110.486 23.276C110.39 23.522 110.237 23.84 110.027 24.23C109.817 24.62 109.544 25.118 109.208 25.724C108.938 26.216 108.698 26.633 108.488 26.975C108.284 27.311 108.068 27.641 107.84 27.965C107.744 28.091 107.63 28.253 107.498 28.451C107.366 28.643 107.213 28.871 107.039 29.135C106.997 29.207 106.943 29.243 106.877 29.243C106.829 29.243 106.793 29.228 106.769 29.198C106.745 29.168 106.721 29.114 106.697 29.036C106.595 28.706 106.499 28.343 106.409 27.947C106.325 27.545 106.25 27.134 106.184 26.714C106.118 26.294 106.067 25.886 106.031 25.49C105.995 25.088 105.977 24.719 105.977 24.383V23.753C105.491 24.221 104.936 24.977 104.312 26.021C103.97 26.585 103.685 27.131 103.457 27.659C103.229 28.181 103.037 28.709 102.881 29.243C102.833 29.393 102.785 29.468 102.737 29.468ZM111.715 29.225C111.613 29.225 111.562 29.174 111.562 29.072C111.562 28.976 111.619 28.928 111.733 28.928C111.835 28.928 111.961 28.922 112.111 28.91C112.261 28.892 112.393 28.88 112.507 28.874C112.525 28.76 112.585 28.592 112.687 28.37C112.789 28.148 112.924 27.896 113.092 27.614C113.26 27.332 113.449 27.041 113.659 26.741L115.162 24.599C115.228 24.497 115.318 24.356 115.432 24.176C115.552 23.99 115.693 23.765 115.855 23.501C115.675 23.513 115.51 23.528 115.36 23.546C115.216 23.564 115.087 23.582 114.973 23.6C114.805 23.624 114.694 23.642 114.64 23.654C114.586 23.666 114.544 23.672 114.514 23.672C114.412 23.672 114.361 23.615 114.361 23.501C114.361 23.435 114.403 23.393 114.487 23.375C114.841 23.309 115.186 23.258 115.522 23.222C115.864 23.186 116.2 23.168 116.53 23.168C116.854 23.168 117.118 23.195 117.322 23.249C117.418 23.279 117.481 23.309 117.511 23.339C117.547 23.369 117.565 23.408 117.565 23.456C117.565 23.552 117.52 23.6 117.43 23.6C117.4 23.6 117.358 23.588 117.304 23.564C117.25 23.54 117.166 23.519 117.052 23.501C116.944 23.477 116.779 23.465 116.557 23.465C116.473 23.465 116.398 23.465 116.332 23.465C116.272 23.465 116.221 23.468 116.179 23.474C116.173 23.6 116.059 23.822 115.837 24.14L115.387 24.779L114.235 26.462C114.019 26.774 113.821 27.074 113.641 27.362C113.461 27.65 113.293 27.92 113.137 28.172C113.047 28.322 112.948 28.541 112.84 28.829C113.068 28.805 113.257 28.79 113.407 28.784C113.557 28.772 113.665 28.766 113.731 28.766C113.863 28.766 113.98 28.772 114.082 28.784C114.19 28.79 114.283 28.799 114.361 28.811C114.451 28.829 114.496 28.874 114.496 28.946C114.496 29.042 114.442 29.09 114.334 29.09C114.262 29.09 114.169 29.084 114.055 29.072C113.947 29.066 113.851 29.063 113.767 29.063C113.497 29.063 113.167 29.09 112.777 29.144C112.747 29.192 112.705 29.216 112.651 29.216C112.603 29.216 112.567 29.195 112.543 29.153C112.363 29.177 112.204 29.195 112.066 29.207C111.928 29.219 111.811 29.225 111.715 29.225ZM118.698 29.315C118.596 29.315 118.545 29.264 118.545 29.162C118.545 29.126 118.566 29.045 118.608 28.919C118.728 28.547 118.932 28.091 119.22 27.551C119.514 27.011 119.892 26.387 120.354 25.679C120.204 25.679 120.129 25.631 120.129 25.535C120.129 25.445 120.183 25.397 120.291 25.391H120.543C120.717 25.139 120.867 24.923 120.993 24.743C121.119 24.563 121.23 24.41 121.326 24.284C121.446 24.122 121.569 23.963 121.695 23.807C121.821 23.645 121.944 23.495 122.064 23.357C122.04 23.357 122.016 23.36 121.992 23.366C121.968 23.366 121.947 23.366 121.929 23.366C121.695 23.366 121.578 23.309 121.578 23.195C121.578 23.087 121.671 23.033 121.857 23.033H124.872C124.968 23.033 125.019 23.081 125.025 23.177C125.025 23.285 124.977 23.339 124.881 23.339H122.46C122.31 23.525 122.157 23.717 122.001 23.915C121.851 24.107 121.686 24.323 121.506 24.563C121.332 24.797 121.131 25.073 120.903 25.391H123.117C123.213 25.391 123.261 25.439 123.261 25.535C123.261 25.631 123.213 25.682 123.117 25.688H120.705C120.153 26.528 119.724 27.233 119.418 27.803C119.118 28.373 118.926 28.841 118.842 29.207C118.824 29.279 118.776 29.315 118.698 29.315ZM125.796 29.333C125.688 29.333 125.634 29.282 125.634 29.18C125.634 29.132 125.652 29.069 125.688 28.991C125.73 28.907 125.766 28.832 125.796 28.766C125.976 28.388 126.213 27.941 126.507 27.425C126.807 26.909 127.164 26.327 127.578 25.679C127.416 25.679 127.335 25.631 127.335 25.535C127.335 25.433 127.392 25.382 127.506 25.382L127.776 25.391C127.962 25.109 128.121 24.872 128.253 24.68C128.385 24.488 128.49 24.338 128.568 24.23C128.7 24.056 128.841 23.882 128.991 23.708C129.147 23.528 129.318 23.354 129.504 23.186C129.786 23.126 130.074 23.084 130.368 23.06C130.668 23.03 130.971 23.015 131.277 23.015C131.817 23.015 132.195 23.042 132.411 23.096C132.489 23.114 132.54 23.135 132.564 23.159C132.594 23.183 132.609 23.216 132.609 23.258C132.609 23.36 132.564 23.411 132.474 23.411C132.402 23.411 132.264 23.396 132.06 23.366C131.856 23.33 131.544 23.312 131.124 23.312C130.92 23.312 130.695 23.324 130.449 23.348C130.203 23.372 129.933 23.408 129.639 23.456C129.387 23.648 128.88 24.293 128.118 25.391H130.323C130.419 25.391 130.467 25.439 130.467 25.535C130.467 25.631 130.419 25.679 130.323 25.679H127.929C127.059 27.011 126.42 28.109 126.012 28.973C127.632 28.613 128.856 28.433 129.684 28.433C130.26 28.433 130.548 28.571 130.548 28.847C130.548 28.943 130.5 28.991 130.404 28.991C130.326 28.991 130.284 28.961 130.278 28.901C130.272 28.835 130.218 28.793 130.116 28.775C130.02 28.751 129.867 28.739 129.657 28.739C129.393 28.739 129.096 28.76 128.766 28.802C128.442 28.838 128.094 28.886 127.722 28.946C127.194 29.024 126.765 29.108 126.435 29.198C126.105 29.288 125.892 29.333 125.796 29.333ZM139.427 29.126C139.313 29.126 139.256 29.069 139.256 28.955C139.256 28.925 139.265 28.892 139.283 28.856C139.307 28.814 139.331 28.766 139.355 28.712C139.445 28.532 139.532 28.355 139.616 28.181C139.7 28.007 139.79 27.815 139.886 27.605C139.988 27.389 140.102 27.14 140.228 26.858C140.36 26.576 140.516 26.237 140.696 25.841C140.9 25.403 141.089 25.01 141.263 24.662C141.437 24.314 141.602 24.002 141.758 23.726C141.626 23.768 141.497 23.813 141.371 23.861C141.251 23.903 141.158 23.939 141.092 23.969C141.02 24.005 140.972 24.029 140.948 24.041C140.93 24.047 140.909 24.05 140.885 24.05C140.801 24.05 140.759 24.005 140.759 23.915C140.759 23.867 140.792 23.819 140.858 23.771C141.056 23.651 141.428 23.516 141.974 23.366C142.04 23.258 142.103 23.162 142.163 23.078C142.193 23.042 142.229 23.018 142.271 23.006C142.319 22.994 142.358 22.988 142.388 22.988C142.442 22.988 142.469 23.012 142.469 23.06C142.469 23.108 142.448 23.171 142.406 23.249C143.156 23.069 143.768 22.979 144.242 22.979C145.358 22.979 145.916 23.309 145.916 23.969C145.916 24.311 145.823 24.611 145.637 24.869C145.451 25.127 145.199 25.352 144.881 25.544C144.569 25.736 144.221 25.904 143.837 26.048C142.901 26.384 142.088 26.552 141.398 26.552C141.308 26.552 141.263 26.495 141.263 26.381C141.263 26.309 141.311 26.273 141.407 26.273C142.085 26.273 142.868 26.111 143.756 25.787C144.11 25.655 144.425 25.499 144.701 25.319C144.977 25.133 145.196 24.929 145.358 24.707C145.52 24.479 145.601 24.245 145.601 24.005C145.601 23.513 145.151 23.267 144.251 23.267C143.981 23.267 143.675 23.297 143.333 23.357C142.991 23.411 142.61 23.495 142.19 23.609C142.01 23.921 141.821 24.263 141.623 24.635C141.431 25.001 141.236 25.403 141.038 25.841L139.994 28.127C139.946 28.229 139.886 28.358 139.814 28.514C139.742 28.664 139.661 28.826 139.571 29C139.529 29.084 139.481 29.126 139.427 29.126ZM147.425 29.261C147.305 29.261 147.245 29.21 147.245 29.108C147.245 29.024 147.404 28.658 147.722 28.01C147.986 27.476 148.184 27.089 148.316 26.849C148.256 26.825 148.226 26.777 148.226 26.705C148.226 26.651 148.256 26.609 148.316 26.579C148.376 26.549 148.433 26.522 148.487 26.498C148.715 26.108 148.925 25.76 149.117 25.454C149.309 25.142 149.48 24.872 149.63 24.644C149.924 24.194 150.173 23.834 150.377 23.564C150.581 23.294 150.743 23.114 150.863 23.024C150.953 23 151.187 22.988 151.565 22.988C152.225 22.988 152.744 23.09 153.122 23.294C153.5 23.492 153.689 23.753 153.689 24.077C153.689 24.611 153.287 25.094 152.483 25.526C151.955 25.814 151.31 26.048 150.548 26.228C150.812 26.264 151.049 26.333 151.259 26.435C151.475 26.531 151.646 26.663 151.772 26.831C151.904 26.993 151.97 27.194 151.97 27.434C151.97 27.596 151.934 27.776 151.862 27.974C151.796 28.166 151.709 28.355 151.601 28.541C151.493 28.721 151.379 28.88 151.259 29.018C151.211 29.078 151.148 29.108 151.07 29.108C150.968 29.108 150.917 29.075 150.917 29.009C150.917 28.985 150.935 28.955 150.971 28.919C151.007 28.877 151.046 28.826 151.088 28.766C151.142 28.688 151.208 28.574 151.286 28.424C151.364 28.274 151.433 28.112 151.493 27.938C151.559 27.764 151.592 27.602 151.592 27.452C151.592 27.212 151.52 27.017 151.376 26.867C151.238 26.717 151.058 26.609 150.836 26.543C150.614 26.471 150.38 26.435 150.134 26.435C149.708 26.435 149.246 26.525 148.748 26.705C148.598 26.981 148.451 27.254 148.307 27.524C148.169 27.794 148.04 28.064 147.92 28.334C147.878 28.43 147.827 28.55 147.767 28.694C147.707 28.832 147.635 28.994 147.551 29.18C147.527 29.234 147.485 29.261 147.425 29.261ZM148.937 26.363C149.141 26.303 149.309 26.264 149.441 26.246C149.579 26.222 149.732 26.201 149.9 26.183C149.93 26.177 150.014 26.153 150.152 26.111C150.296 26.063 150.497 26 150.755 25.922C151.055 25.826 151.328 25.727 151.574 25.625C151.82 25.523 152.039 25.421 152.231 25.319C152.951 24.929 153.311 24.515 153.311 24.077C153.311 23.933 153.251 23.81 153.131 23.708C153.017 23.606 152.867 23.525 152.681 23.465C152.501 23.399 152.306 23.351 152.096 23.321C151.886 23.291 151.691 23.276 151.511 23.276C151.415 23.276 151.328 23.282 151.25 23.294C151.172 23.3 151.1 23.309 151.034 23.321C150.722 23.687 150.413 24.086 150.107 24.518C149.807 24.944 149.543 25.352 149.315 25.742C149.207 25.928 149.129 26.063 149.081 26.147C149.033 26.225 148.985 26.297 148.937 26.363ZM158.425 29.387C158.053 29.387 157.699 29.315 157.363 29.171C157.033 29.027 156.763 28.811 156.553 28.523C156.343 28.229 156.238 27.863 156.238 27.425C156.238 27.197 156.289 26.933 156.391 26.633C156.493 26.327 156.622 26.027 156.778 25.733C156.934 25.433 157.096 25.178 157.264 24.968C157.45 24.734 157.669 24.512 157.921 24.302C158.179 24.092 158.452 23.906 158.74 23.744C159.028 23.582 159.319 23.456 159.613 23.366C159.907 23.27 160.186 23.222 160.45 23.222C160.774 23.222 161.086 23.285 161.386 23.411C161.692 23.537 161.965 23.711 162.205 23.933C162.445 24.155 162.634 24.413 162.772 24.707C162.916 24.995 162.988 25.301 162.988 25.625C162.988 25.937 162.919 26.246 162.781 26.552C162.643 26.858 162.46 27.149 162.232 27.425C162.01 27.695 161.761 27.944 161.485 28.172C161.047 28.532 160.561 28.823 160.027 29.045C159.499 29.273 158.968 29.387 158.434 29.387H158.425ZM158.371 29.09C158.881 29.09 159.382 28.985 159.874 28.775C160.372 28.559 160.822 28.286 161.224 27.956C161.488 27.74 161.728 27.503 161.944 27.245C162.16 26.981 162.334 26.708 162.466 26.426C162.598 26.138 162.664 25.856 162.664 25.58C162.664 25.31 162.601 25.052 162.475 24.806C162.355 24.56 162.19 24.341 161.98 24.149C161.776 23.957 161.542 23.807 161.278 23.699C161.014 23.585 160.741 23.528 160.459 23.528C160.207 23.528 159.94 23.573 159.658 23.663C159.382 23.753 159.109 23.876 158.839 24.032C158.569 24.182 158.314 24.359 158.074 24.563C157.84 24.761 157.639 24.968 157.471 25.184C157.315 25.388 157.165 25.631 157.021 25.913C156.877 26.195 156.76 26.477 156.67 26.759C156.586 27.041 156.544 27.287 156.544 27.497C156.544 27.833 156.622 28.121 156.778 28.361C156.94 28.595 157.159 28.775 157.435 28.901C157.711 29.027 158.023 29.09 158.371 29.09ZM166.384 29.279C166.126 29.279 165.916 29.201 165.754 29.045C165.598 28.889 165.52 28.682 165.52 28.424C165.52 28.238 165.559 28.049 165.637 27.857C165.715 27.665 165.814 27.485 165.934 27.317C166.06 27.143 166.189 26.999 166.321 26.885C166.423 26.789 166.513 26.741 166.591 26.741C166.669 26.741 166.708 26.78 166.708 26.858C166.708 26.93 166.657 27.011 166.555 27.101C166.351 27.275 166.183 27.488 166.051 27.74C165.919 27.992 165.853 28.226 165.853 28.442C165.853 28.784 166.036 28.955 166.402 28.955C166.618 28.955 166.834 28.883 167.05 28.739C167.272 28.595 167.491 28.406 167.707 28.172C167.923 27.932 168.13 27.665 168.328 27.371C168.532 27.077 168.724 26.783 168.904 26.489C169.702 25.199 170.233 24.131 170.497 23.285C170.419 23.291 170.299 23.315 170.137 23.357C169.981 23.399 169.783 23.459 169.543 23.537C169.315 23.609 169.144 23.666 169.03 23.708C168.916 23.744 168.838 23.762 168.796 23.762C168.682 23.762 168.625 23.711 168.625 23.609C168.625 23.555 168.664 23.504 168.742 23.456C168.868 23.378 169.033 23.306 169.237 23.24C169.447 23.168 169.684 23.108 169.948 23.06C170.41 22.97 170.854 22.925 171.28 22.925C171.454 22.925 171.631 22.934 171.811 22.952C171.991 22.97 172.135 22.991 172.243 23.015C172.345 23.033 172.396 23.084 172.396 23.168C172.396 23.258 172.354 23.303 172.27 23.303C172.246 23.303 172.153 23.291 171.991 23.267C171.829 23.237 171.613 23.222 171.343 23.222C171.157 23.222 170.968 23.231 170.776 23.249C170.8 23.273 170.812 23.303 170.812 23.339C170.812 23.357 170.8 23.396 170.776 23.456C170.758 23.51 170.74 23.561 170.722 23.609C170.566 24.047 170.368 24.503 170.128 24.977C169.894 25.445 169.621 25.937 169.309 26.453C169.093 26.807 168.868 27.152 168.634 27.488C168.4 27.824 168.157 28.127 167.905 28.397C167.659 28.667 167.407 28.88 167.149 29.036C166.897 29.198 166.642 29.279 166.384 29.279ZM173.167 29.333C173.059 29.333 173.005 29.282 173.005 29.18C173.005 29.132 173.023 29.069 173.059 28.991C173.101 28.907 173.137 28.832 173.167 28.766C173.347 28.388 173.584 27.941 173.878 27.425C174.178 26.909 174.535 26.327 174.949 25.679C174.787 25.679 174.706 25.631 174.706 25.535C174.706 25.433 174.763 25.382 174.877 25.382L175.147 25.391C175.333 25.109 175.492 24.872 175.624 24.68C175.756 24.488 175.861 24.338 175.939 24.23C176.071 24.056 176.212 23.882 176.362 23.708C176.518 23.528 176.689 23.354 176.875 23.186C177.157 23.126 177.445 23.084 177.739 23.06C178.039 23.03 178.342 23.015 178.648 23.015C179.188 23.015 179.566 23.042 179.782 23.096C179.86 23.114 179.911 23.135 179.935 23.159C179.965 23.183 179.98 23.216 179.98 23.258C179.98 23.36 179.935 23.411 179.845 23.411C179.773 23.411 179.635 23.396 179.431 23.366C179.227 23.33 178.915 23.312 178.495 23.312C178.291 23.312 178.066 23.324 177.82 23.348C177.574 23.372 177.304 23.408 177.01 23.456C176.758 23.648 176.251 24.293 175.489 25.391H177.694C177.79 25.391 177.838 25.439 177.838 25.535C177.838 25.631 177.79 25.679 177.694 25.679H175.3C174.43 27.011 173.791 28.109 173.383 28.973C175.003 28.613 176.227 28.433 177.055 28.433C177.631 28.433 177.919 28.571 177.919 28.847C177.919 28.943 177.871 28.991 177.775 28.991C177.697 28.991 177.655 28.961 177.649 28.901C177.643 28.835 177.589 28.793 177.487 28.775C177.391 28.751 177.238 28.739 177.028 28.739C176.764 28.739 176.467 28.76 176.137 28.802C175.813 28.838 175.465 28.886 175.093 28.946C174.565 29.024 174.136 29.108 173.806 29.198C173.476 29.288 173.263 29.333 173.167 29.333ZM184.573 29.405C184.027 29.405 183.55 29.309 183.142 29.117C182.74 28.931 182.428 28.658 182.206 28.298C181.984 27.932 181.873 27.494 181.873 26.984C181.873 26.504 181.963 26.063 182.143 25.661C182.329 25.259 182.596 24.887 182.944 24.545C183.472 24.035 184.087 23.642 184.789 23.366C185.497 23.09 186.226 22.952 186.976 22.952C187.348 22.952 187.675 23.018 187.957 23.15C188.239 23.276 188.461 23.447 188.623 23.663C188.785 23.879 188.866 24.116 188.866 24.374C188.866 24.542 188.827 24.698 188.749 24.842C188.671 24.98 188.584 25.091 188.488 25.175C188.392 25.259 188.314 25.301 188.254 25.301C188.206 25.301 188.158 25.28 188.11 25.238C188.062 25.19 188.038 25.151 188.038 25.121C188.038 25.085 188.08 25.034 188.164 24.968C188.248 24.902 188.329 24.815 188.407 24.707C188.491 24.593 188.533 24.455 188.533 24.293C188.533 24.077 188.458 23.888 188.308 23.726C188.164 23.558 187.96 23.429 187.696 23.339C187.438 23.243 187.141 23.195 186.805 23.195C186.139 23.195 185.491 23.336 184.861 23.618C184.231 23.894 183.679 24.266 183.205 24.734C182.875 25.064 182.626 25.412 182.458 25.778C182.29 26.144 182.206 26.567 182.206 27.047C182.206 27.509 182.314 27.896 182.53 28.208C182.752 28.514 183.049 28.745 183.421 28.901C183.793 29.051 184.21 29.126 184.672 29.126C185.2 29.126 185.761 29.042 186.355 28.874C186.703 28.778 186.997 28.67 187.237 28.55C187.477 28.424 187.657 28.307 187.777 28.199C187.891 28.097 187.975 28.022 188.029 27.974C188.083 27.926 188.128 27.902 188.164 27.902C188.206 27.902 188.227 27.929 188.227 27.983C188.227 28.043 188.191 28.118 188.119 28.208C188.053 28.298 187.978 28.376 187.894 28.442C187.684 28.604 187.417 28.751 187.093 28.883C186.775 29.009 186.457 29.114 186.139 29.198C185.857 29.27 185.587 29.321 185.329 29.351C185.071 29.387 184.819 29.405 184.573 29.405ZM192.565 29.54C192.463 29.54 192.412 29.48 192.412 29.36C192.412 29.168 192.517 28.832 192.727 28.352C192.937 27.866 193.252 27.242 193.672 26.48L195.382 23.402H195.211C193.813 23.402 192.901 23.573 192.475 23.915C192.301 24.053 192.181 24.251 192.115 24.509C192.109 24.599 192.07 24.644 191.998 24.644C191.878 24.644 191.818 24.59 191.818 24.482C191.818 24.182 191.983 23.912 192.313 23.672C192.811 23.3 193.744 23.114 195.112 23.114C195.508 23.114 195.907 23.123 196.309 23.141L197.245 23.204C197.437 23.216 197.611 23.228 197.767 23.24C197.923 23.246 198.061 23.249 198.181 23.249C198.277 23.249 198.325 23.297 198.325 23.393C198.325 23.489 198.277 23.537 198.181 23.537C197.971 23.537 197.659 23.519 197.245 23.483C196.945 23.453 196.711 23.435 196.543 23.429C196.375 23.423 196.222 23.42 196.084 23.42C195.958 23.42 195.865 23.42 195.805 23.42C195.745 23.414 195.703 23.411 195.679 23.411C195.607 23.597 195.424 23.954 195.13 24.482L194.221 26.102C193.711 27.014 193.33 27.74 193.078 28.28C192.832 28.82 192.709 29.168 192.709 29.324V29.369C192.709 29.483 192.661 29.54 192.565 29.54Z" fill="black"/>
<mask id="mask0_2011_6" style="mask-type:alpha" maskUnits="userSpaceOnUse" x="0" y="0" width="42" height="32">
<path d="M32 5H35V11H32V5Z" fill="black"/>
<path d="M37.7539 19.8242V0.683594C37.7539 0.304688 37.4453 0 37.0664 0C32.1367 0 28.125 3.99219 28.125 8.90234V12.043L22.5273 2.39453C22.4375 2.23828 22.2852 2.125 22.1094 2.07812C21.9336 2.03125 21.7461 2.05469 21.5859 2.14453C17.9727 4.22266 16.7305 8.83984 18.8164 12.4336C18.9102 12.5898 19.0586 12.707 19.2344 12.7539L20.4492 13.0781L20.125 14.2891C20.0273 14.6523 20.2461 15.0273 20.6133 15.125L21.8281 15.4492L21.5 16.6602C21.4531 16.8359 21.4766 17.0234 21.5703 17.1797C21.6602 17.3359 21.8125 17.4531 21.9883 17.5L23.2031 17.8242L22.875 19.0352C22.8633 19.082 22.8711 19.1289 22.8672 19.1758H17.3242L15.7969 14.9922C15.668 14.6367 15.2695 14.4531 14.9141 14.582L10.3906 16.2227L8.50781 11.0742L9.80078 10.6055L10.9766 13.8242C11.0703 14.0859 11.3164 14.2617 11.5938 14.2734C11.8789 14.293 12.1289 14.1289 12.2461 13.8789L13.8906 10.3672C13.9688 10.2031 13.9766 10.0156 13.9141 9.84375L13.207 7.91406C12.3906 5.67969 10.75 3.89453 8.58203 2.89062C6.41797 1.88672 3.99219 1.78125 1.74609 2.59375C1.39062 2.72266 1.20312 3.11719 1.33594 3.46875L7.44531 20.1797C7.29688 20.0391 7.08984 19.9688 6.88281 20L5.19922 20.2305L6.02344 18.75C6.14844 18.5234 6.13672 18.2461 5.98828 18.0312C5.83984 17.8164 5.58594 17.7031 5.32812 17.7422L3.64062 17.9727L4.46484 16.4922C4.58594 16.2812 4.58203 16.0195 4.45312 15.8086C4.32812 15.6016 4.10547 15.4922 3.85547 15.4766L1.74219 15.5039L1.17188 14.6797L0.0390625 15.4531L0.816406 16.582C0.949219 16.7695 1.17578 16.8906 1.39453 16.8789L2.6875 16.8633L1.77344 18.5078C1.64453 18.7344 1.66016 19.0156 1.80469 19.2266C1.95312 19.4414 2.21094 19.5586 2.46875 19.5195L4.15234 19.2852L3.32812 20.7656C3.20312 20.9961 3.21484 21.2734 3.36328 21.4883C3.51172 21.6992 3.76562 21.8164 4.02344 21.7773L5.71094 21.5469L4.88672 23.0273C4.75781 23.2539 4.77344 23.5312 4.92188 23.7461C5.05078 23.9336 5.26172 24.043 5.48828 24.043C5.51953 24.043 5.55078 24.0391 5.58203 24.0352L6.98828 23.8398C6.86719 24.3203 6.79688 24.8203 6.79688 25.3359C6.79688 28.7344 9.57422 31.5 12.9883 31.5H35.0039C38.4141 31.5 41.1953 28.7344 41.1953 25.3359C41.1953 22.9219 39.7891 20.832 37.7539 19.8242ZM36.3789 1.39844V19.332C35.9336 19.2305 35.4766 19.1719 35.0039 19.1719H29.5V8.90234C29.5 4.97656 32.5273 1.74609 36.3789 1.39844ZM25.5977 19.0469L24.3828 18.7227L24.7109 17.5156C24.7578 17.3398 24.7305 17.1523 24.6406 16.9961C24.5508 16.8359 24.3984 16.7227 24.2227 16.6758L23.0078 16.3516L23.332 15.1406C23.4336 14.7773 23.2148 14.4023 22.8477 14.3008L21.6328 13.9766L21.957 12.7695C22.0547 12.4023 21.8398 12.0273 21.4727 11.9297L19.875 11.5039C18.4648 8.80469 19.2656 5.48438 21.6992 3.70312L28.125 14.7812V19.1719H25.8477C25.7734 19.1172 25.6914 19.0742 25.5977 19.0469ZM8.00391 4.12891C9.83594 4.98047 11.2266 6.49219 11.918 8.38281L12.5234 10.0469L11.7031 11.8008L10.8594 9.49219C10.7305 9.13672 10.332 8.95703 9.97656 9.08203L7.39062 10.0195C7.03516 10.1484 6.84766 10.543 6.98047 10.8984L9.33203 17.332C9.39453 17.5039 9.52344 17.6406 9.6875 17.7188C9.85547 17.793 10.043 17.8008 10.2148 17.7422L14.7383 16.1016L15.8633 19.1719H12.9883C11.4961 19.1719 10.125 19.7031 9.05469 20.5781L2.875 3.67188C4.58203 3.21875 6.37891 3.375 8.00391 4.12891ZM6.75781 22.4883L7.58203 21.0078C7.625 20.9297 7.64453 20.8437 7.65625 20.7578L8 21.6992C7.83984 21.918 7.6875 22.1406 7.55859 22.3789L6.75781 22.4883ZM35.0039 30.1289H12.9883C10.332 30.1289 8.17188 27.9766 8.17188 25.3359C8.17188 22.6914 10.332 20.543 12.9883 20.543H35.0039C37.6563 20.543 39.8164 22.6914 39.8164 25.3359C39.8164 27.9766 37.6563 30.1289 35.0039 30.1289Z" fill="black"/>
<path d="M33.5312 22.6992C32.0156 22.6992 30.7812 23.9258 30.7812 25.4375C30.7812 26.9492 32.0156 28.1758 33.5312 28.1758C35.0508 28.1758 36.2852 26.9492 36.2852 25.4375C36.2852 23.9258 35.0508 22.6992 33.5312 22.6992ZM33.5312 26.8086C32.7734 26.8086 32.1562 26.1914 32.1562 25.4375C32.1562 24.6836 32.7734 24.0664 33.5312 24.0664C34.293 24.0664 34.9102 24.6836 34.9102 25.4375C34.9102 26.1914 34.293 26.8086 33.5312 26.8086Z" fill="black"/>
<path d="M14.2695 22.6992C12.7539 22.6992 11.5195 23.9258 11.5195 25.4375C11.5195 26.9492 12.7539 28.1758 14.2695 28.1758C15.7891 28.1758 17.0234 26.9492 17.0234 25.4375C17.0234 23.9258 15.7891 22.6992 14.2695 22.6992ZM14.2695 26.8086C13.5117 26.8086 12.8945 26.1914 12.8945 25.4375C12.8945 24.6836 13.5117 24.0664 14.2695 24.0664C15.0313 24.0664 15.6484 24.6836 15.6484 25.4375C15.6484 26.1914 15.0313 26.8086 14.2695 26.8086Z" fill="black"/>
<path d="M21 23H29V25H21V23Z" fill="black"/>
<path d="M19 26H26V28H19V26Z" fill="black"/>
</mask>
<g mask="url(#mask0_2011_6)">
<rect x="-1" y="-2" width="44" height="35" fill="url(#paint0_linear_2011_6)"/>
</g>
</g>
<defs>
<linearGradient id="paint0_linear_2011_6" x1="-1" y1="-1.5" x2="43" y2="33" gradientUnits="userSpaceOnUse">
<stop stop-color="#007DD7"/>
<stop offset="0.97" stop-color="#98209A"/>
</linearGradient>
<clipPath id="clip0_2011_6">
<rect width="199" height="32" fill="white"/>
</clipPath>
</defs>
</svg>
